<?xml version="1.0" standalone="no"?>
<!DOCTYPE svg PUBLIC "-//W3C//DTD SVG 20010904//EN"
 "http://www.w3.org/TR/2001/REC-SVG-20010904/DTD/svg10.dtd">
<svg version="1.0" xmlns="http://www.w3.org/2000/svg"
 width="256.000000pt" height="256.000000pt" viewBox="0 0 256.000000 256.000000"
 preserveAspectRatio="xMidYMid meet">

<g transform="translate(0.000000,256.000000) scale(0.100000,-0.100000)"
fill="#000000" stroke="none">
<path d="M855 2230 c-205 -12 -388 -30 -398 -39 -5 -5 -7 -285 -5 -622 l4
-614 27 -100 c92 -341 331 -582 676 -681 90 -25 98 -26 160 -14 336 66 595
276 710 575 66 171 66 167 66 845 l0 615 -63 7 c-247 27 -912 43 -1177 28z
m357 -112 c22 -6 43 -20 49 -29 5 -11 8 -117 7 -251 -3 -201 -5 -232 -18 -229
-8 2 -39 11 -69 19 -49 15 -61 14 -155 -2 -178 -32 -217 -38 -232 -32 -12 4
-14 48 -14 257 l0 251 63 -6 c46 -5 80 -2 132 13 81 22 181 26 237 9z m333 -4
c28 -8 93 -17 145 -20 l95 -4 3 -250 2 -250 -26 0 c-15 0 -93 12 -173 26 -154
27 -216 27 -270 -1 l-30 -15 -3 222 c-2 123 -2 235 0 249 3 23 11 29 55 42 68
20 140 21 202 1z m-879 -129 c21 -33 6 -72 -31 -81 -50 -13 -86 53 -49 90 24
24 61 20 80 -9z m1294 -15 c14 -21 12 -30 -5 -30 -9 0 -42 -11 -75 -25 -33
-14 -62 -25 -65 -25 -3 0 -5 21 -5 48 l0 47 70 0 c52 0 73 -4 80 -15z m-1200
-20 c0 -27 -3 -30 -30 -30 -27 0 -30 3 -30 30 0 27 3 30 30 30 27 0 30 -3 30
-30z m-92 -178 c28 -36 2 -82 -47 -82 -34 0 -51 17 -51 51 0 52 65 72 98 31z
m1290 5 c19 -13 14 -37 -8 -37 -12 0 -38 -9 -60 -20 -22 -11 -48 -20 -60 -20
-17 0 -20 6 -20 43 l0 42 68 0 c37 0 73 -4 80 -8z m-1200 -38 c3 -27 -18 -41
-45 -32 -14 5 -18 45 -6 57 16 16 48 1 51 -25z m585 -220 c26 -7 47 -17 47
-21 0 -4 7 -5 15 -2 8 4 15 1 15 -5 0 -7 -7 -14 -15 -17 -17 -7 -11 -43 9 -56
8 -6 8 -10 -1 -16 -9 -6 -10 -17 -3 -42 5 -19 6 -36 2 -39 -4 -4 -7 -12 -8
-18 -1 -7 -2 -20 -2 -29 -1 -10 -8 -14 -16 -11 -12 5 -13 -2 -9 -30 4 -26 3
-34 -5 -29 -19 12 -14 -5 12 -39 25 -32 30 -55 28 -109 -2 -24 -4 -27 -17 -16
-19 16 -19 1 0 -24 16 -21 21 -61 7 -52 -5 3 -6 -21 -4 -53 5 -63 -12 -92 -23
-41 -8 35 -15 38 -33 10 -17 -28 -29 -18 -36 34 -4 24 -13 51 -20 61 -12 16
-16 10 -40 -61 -14 -43 -26 -97 -27 -119 0 -32 -2 -36 -9 -20 -12 28 -12 133
0 140 6 3 10 14 10 23 0 13 -2 13 -14 -4 -14 -18 -15 -18 -22 -1 -3 10 -2 29
5 43 15 34 14 44 -4 38 -23 -9 -20 73 5 113 14 24 15 31 5 26 -11 -4 -15 2
-15 21 0 28 49 84 93 103 15 7 27 17 27 23 0 7 -7 7 -21 -1 -19 -10 -20 -8
-14 10 5 18 1 22 -26 28 -30 6 -31 7 -14 20 23 16 57 17 73 1 9 -9 12 -9 12 3
0 8 -27 31 -60 52 -45 28 -67 36 -85 31 -20 -5 -25 -2 -25 13 0 11 9 28 19 37
18 17 20 17 30 -1 8 -15 10 -15 11 -2 0 18 58 50 80 45 8 -2 36 -10 63 -17z
m-359 -22 c12 -9 20 -31 24 -65 3 -35 9 -52 18 -52 8 0 14 -7 14 -15 0 -10
-10 -15 -34 -15 -46 0 -57 -17 -50 -74 l7 -46 46 2 c25 1 54 -2 64 -6 24 -11
22 10 -3 31 -22 19 -25 35 -10 63 9 16 15 13 60 -31 l50 -48 -4 -63 c-3 -35
-8 -74 -12 -86 -7 -23 13 -157 26 -177 3 -5 4 -26 0 -45 l-5 -35 -14 34 c-16
37 -63 71 -99 71 l-22 0 20 -37 c38 -71 17 -99 -27 -34 l-21 32 -16 -23 c-9
-12 -16 -30 -16 -40 0 -22 -16 -24 -24 -2 -4 10 7 34 28 63 18 25 39 57 45 71
l12 25 -23 -26 c-13 -14 -35 -40 -49 -59 -26 -34 -26 -34 -38 -13 -9 19 -7 29
19 69 16 27 30 53 30 58 0 6 -14 -10 -31 -36 -19 -29 -39 -48 -50 -48 -12 0
-19 -7 -19 -19 0 -21 -46 -81 -61 -81 -21 0 -6 47 30 94 38 50 66 96 58 96 -2
0 -26 -27 -52 -61 -42 -54 -49 -59 -63 -46 -13 14 -12 18 5 44 26 36 55 93 48
93 -2 0 -21 -25 -41 -55 -20 -30 -39 -55 -42 -55 -3 0 -2 24 1 53 3 32 2 45
-3 32 -5 -11 -9 -30 -9 -43 -1 -12 -10 -30 -21 -39 -11 -10 -16 -21 -11 -27 5
-6 11 -42 14 -79 4 -59 3 -68 -11 -65 -24 5 -34 77 -26 193 3 55 4 98 0 95 -5
-5 -72 -163 -98 -229 -6 -17 -12 -21 -20 -13 -20 20 36 197 83 264 33 45 21
42 -37 -11 -49 -45 -94 -66 -94 -43 0 4 32 36 70 71 39 34 70 66 70 71 0 5
-16 2 -36 -6 -20 -8 -52 -14 -72 -12 l-37 3 70 42 c39 22 81 53 95 69 l25 27
-25 -8 c-95 -28 -141 -31 -127 -8 3 5 63 45 133 88 70 43 122 81 116 83 -7 2
-12 10 -12 18 0 9 8 12 28 9 15 -3 47 1 72 9 57 19 62 19 84 3z m749 -8 c45
-13 66 -24 57 -29 -9 -5 2 -14 34 -29 26 -11 45 -25 42 -30 -3 -5 23 -37 59
-72 36 -34 63 -64 60 -67 -6 -6 -51 23 -89 57 -17 14 -5 -2 25 -36 71 -80 123
-153 109 -153 -32 0 -90 44 -119 89 -38 59 -77 96 -44 41 113 -186 128 -229
121 -346 -5 -68 -11 -94 -22 -83 -3 2 -23 73 -45 157 -23 85 -48 164 -57 175
-15 20 -16 20 -9 2 25 -67 46 -144 51 -190 6 -52 6 -52 -26 -64 -18 -6 -36
-11 -40 -11 -4 0 -10 30 -13 68 -3 37 -13 85 -21 107 l-15 40 5 -55 c3 -30 7
-61 9 -67 8 -24 -9 -13 -52 35 -54 58 -39 19 18 -50 36 -42 49 -85 33 -101 -4
-4 -25 15 -48 40 -23 26 -54 61 -69 78 l-28 30 20 -40 c10 -22 40 -60 65 -85
49 -47 54 -61 32 -79 -12 -10 -20 -8 -40 10 -14 13 -26 29 -26 36 0 7 -8 13
-18 13 -10 0 -28 14 -41 31 -13 17 -25 28 -29 25 -3 -4 4 -20 16 -36 24 -32
27 -47 12 -70 -8 -12 -14 -10 -40 15 -16 16 -30 24 -30 19 0 -6 14 -23 30 -39
17 -16 30 -32 30 -36 0 -12 -51 -69 -71 -80 -32 -17 -23 10 16 47 19 18 35 35
35 38 0 3 -13 6 -29 6 -31 0 -33 4 -46 68 -4 17 -10 32 -14 32 -12 0 -31 -23
-31 -38 0 -21 -31 -82 -41 -82 -5 0 -9 12 -9 28 0 15 -6 37 -14 48 -11 16 -14
49 -10 148 3 111 1 132 -14 155 -21 30 -18 61 6 61 18 1 62 62 62 87 0 13 3
13 15 3 11 -9 14 -22 10 -42 -5 -23 -3 -28 12 -28 25 0 36 9 62 54 19 33 21
43 10 62 -10 20 -14 21 -26 8 -16 -15 -37 -17 -68 -5 -18 7 -17 9 13 25 26 13
31 21 27 39 -8 30 23 58 79 73 22 6 43 12 45 13 2 0 35 -8 74 -20z m-550 -79
c68 0 66 -17 -4 -25 -67 -8 -96 6 -83 39 6 15 8 15 24 1 10 -9 35 -15 63 -15z
m113 -495 c3 -19 4 -53 2 -75 -4 -41 6 -54 17 -21 3 10 14 26 24 35 18 17 19
16 26 -16 12 -52 8 -86 -14 -122 -30 -47 -26 -66 4 -22 13 20 30 60 37 88 9
35 18 53 28 53 23 0 23 -45 1 -87 -21 -41 -12 -52 13 -16 14 20 16 20 16 4 0
-10 -9 -29 -20 -43 -11 -14 -20 -33 -20 -42 1 -26 49 40 56 77 3 18 15 49 25
69 11 21 19 45 19 55 0 9 4 20 10 23 12 8 23 -37 18 -75 -4 -25 -2 -27 13 -19
29 15 34 10 12 -13 -11 -13 -30 -45 -43 -71 -12 -27 -29 -51 -36 -54 -16 -6
-19 -23 -4 -23 5 0 43 29 84 65 61 53 77 74 91 115 9 27 21 50 26 50 17 0 9
-75 -11 -114 l-21 -38 51 28 c49 26 93 71 119 121 9 19 58 53 74 53 2 0 -4
-25 -14 -57 -23 -68 -23 -64 -2 -56 14 5 12 0 -7 -24 -37 -46 -70 -62 -159
-77 -57 -10 -95 -24 -129 -45 -26 -17 -68 -42 -94 -55 -36 -17 -44 -26 -36
-34 19 -19 85 -14 129 9 46 23 61 19 34 -11 -35 -38 -97 -60 -172 -60 -101 0
-113 -7 -66 -36 44 -27 70 -29 97 -9 23 17 54 19 76 5 12 -8 8 -17 -27 -50
-23 -22 -52 -40 -64 -40 -12 0 -46 14 -76 31 -70 40 -89 29 -49 -31 30 -45 31
-67 3 -84 -13 -8 -24 -7 -44 4 -33 19 -42 41 -14 33 30 -8 36 19 14 62 l-19
37 -43 -36 c-53 -45 -84 -53 -114 -32 -50 35 -121 105 -114 112 15 15 102 -17
129 -47 15 -16 32 -29 38 -29 14 0 70 55 70 69 0 15 -75 33 -105 25 -31 -8
-33 9 -3 30 32 23 78 20 106 -6 l25 -23 -12 22 c-29 57 -84 66 -169 29 -30
-13 -65 -21 -78 -18 -25 5 -124 87 -124 103 0 5 19 0 41 -12 33 -16 52 -19 88
-15 122 17 143 17 172 6 48 -20 46 -2 -2 20 -51 23 -91 25 -156 8 -39 -9 -50
-9 -79 7 -43 23 -29 45 29 45 61 0 34 17 -48 30 -142 21 -258 70 -169 70 l25
0 -20 26 c-16 20 -20 39 -18 80 1 34 6 54 14 54 16 0 33 -33 33 -64 0 -13 5
-37 12 -53 9 -22 12 -24 15 -10 6 22 10 22 45 -8 37 -31 53 -32 43 -2 -4 12
-9 47 -12 77 -5 49 -4 53 10 42 8 -7 20 -34 27 -60 6 -27 22 -61 35 -77 l24
-30 1 50 c0 28 5 57 10 65 16 26 53 -21 60 -77 5 -46 7 -50 70 -90 36 -23 77
-51 93 -63 15 -12 27 -17 27 -11 0 5 -29 31 -65 57 -75 53 -95 84 -95 148 0
25 -5 57 -10 72 -13 33 -8 39 18 23 27 -17 68 -83 87 -139 9 -26 26 -57 39
-69 l23 -21 -5 79 c-4 78 17 181 38 181 5 0 12 -16 16 -35z m-414 -85 c3 -16
1 -30 -3 -30 -12 0 -31 39 -24 50 11 19 23 10 27 -20z m866 -22 c14 -14 -2
-38 -24 -38 -8 0 -14 -4 -14 -10 0 -5 -5 -10 -12 -10 -9 0 -9 3 0 12 7 7 12
22 12 35 0 25 19 30 38 11z m-994 -84 c11 -4 16 -19 16 -50 0 -24 -4 -44 -9
-44 -7 0 -41 80 -41 97 0 5 17 4 34 -3z m1086 -63 c-24 -49 -40 -53 -40 -11 0
37 52 98 58 68 2 -9 -6 -35 -18 -57z"/>
<path d="M1034 2035 c-19 -30 -13 -52 18 -64 30 -11 48 0 20 12 -26 12 -27 20
-7 37 8 7 15 19 15 26 0 23 -28 16 -46 -11z m31 -6 c-10 -15 -25 -10 -19 6 4
8 10 12 15 9 5 -3 7 -10 4 -15z"/>
<path d="M1130 2040 c-8 -5 -15 -25 -16 -44 -1 -33 2 -36 26 -36 35 0 57 24
41 44 -8 10 -9 16 -1 21 6 3 8 11 5 16 -8 12 -36 11 -55 -1z m24 -21 c-3 -5
-10 -7 -15 -3 -5 3 -7 10 -3 15 3 5 10 7 15 3 5 -3 7 -10 3 -15z m16 -39 c0
-5 -9 -10 -20 -10 -11 0 -20 5 -20 10 0 6 9 10 20 10 11 0 20 -4 20 -10z"/>
<path d="M848 2029 c-21 -12 -24 -59 -6 -77 7 -7 21 -12 32 -11 19 0 19 1 -2
10 -19 7 -23 15 -20 41 4 39 34 50 56 22 13 -18 14 -18 10 1 -4 23 -43 31 -70
14z"/>
<path d="M957 2003 c7 -47 13 -55 13 -19 0 19 6 29 20 33 30 8 24 23 -9 23
-29 0 -30 -1 -24 -37z"/>
<path d="M907 1965 c-4 -8 -2 -17 3 -20 6 -4 10 3 10 14 0 25 -6 27 -13 6z"/>
<path d="M1070 1936 c0 -2 9 -6 20 -9 11 -3 20 -1 20 4 0 5 -9 9 -20 9 -11 0
-20 -2 -20 -4z"/>
<path d="M1195 1931 c-3 -5 -1 -12 5 -16 5 -3 10 1 10 9 0 18 -6 21 -15 7z"/>
<path d="M1047 1924 c-13 -13 -7 -23 24 -39 20 -11 29 -21 25 -31 -3 -9 -1
-12 4 -9 19 12 10 45 -14 55 -13 5 -26 14 -28 20 -2 6 -7 8 -11 4z"/>
<path d="M836 1901 c-21 -23 -18 -60 6 -75 27 -17 33 1 8 22 -24 20 -22 56 2
50 15 -3 24 15 11 19 -5 2 -17 -5 -27 -16z"/>
<path d="M984 1907 c-8 -22 -1 -70 12 -74 6 -2 10 13 9 36 -1 44 -11 63 -21
38z"/>
<path d="M920 1901 c0 -6 4 -12 9 -15 11 -7 2 -46 -10 -46 -5 0 -9 10 -10 23
l0 22 -10 -23 c-12 -31 -5 -41 29 -39 25 2 27 6 24 37 -2 19 -6 38 -9 43 -6
10 -23 9 -23 -2z"/>
<path d="M1134 1885 c-13 -20 -14 -28 -4 -40 14 -16 40 -20 40 -6 0 5 -7 11
-15 15 -20 7 -19 26 3 42 10 8 12 13 5 14 -7 0 -20 -11 -29 -25z"/>
<path d="M1196 1863 c13 -55 32 -61 26 -8 -3 22 -10 35 -18 35 -11 0 -13 -7
-8 -27z"/>
<path d="M1040 1850 c0 -5 5 -10 11 -10 5 0 7 5 4 10 -3 6 -8 10 -11 10 -2 0
-4 -4 -4 -10z"/>
<path d="M1080 1800 c0 -5 5 -10 10 -10 6 0 10 5 10 10 0 6 -4 10 -10 10 -5 0
-10 -4 -10 -10z"/>
<path d="M857 1772 c-9 -10 -17 -28 -17 -40 0 -24 27 -55 41 -47 14 9 11 25
-5 25 -17 0 -31 34 -21 50 5 8 11 7 21 -1 20 -17 31 -2 13 17 -14 13 -17 13
-32 -4z"/>
<path d="M1027 1783 c-11 -10 -8 -71 4 -79 6 -3 16 -1 22 5 8 8 8 11 -2 11 -9
0 -12 9 -9 24 5 27 -4 51 -15 39z"/>
<path d="M1162 1777 c-7 -7 -13 -28 -14 -47 -3 -32 -2 -33 32 -33 33 -1 35 1
31 29 -6 56 -27 77 -49 51z m18 -22 c0 -8 -4 -15 -10 -15 -5 0 -10 7 -10 15 0
8 5 15 10 15 6 0 10 -7 10 -15z m0 -35 c0 -5 -4 -10 -10 -10 -5 0 -10 5 -10
10 0 6 5 10 10 10 6 0 10 -4 10 -10z"/>
<path d="M925 1770 c-1 -3 0 -23 3 -45 l6 -40 6 33 c7 43 24 46 28 5 2 -18 8
-33 14 -33 6 0 8 12 4 31 -3 17 -6 37 -6 44 0 12 -48 16 -55 5z"/>
<path d="M1085 1771 c-3 -5 -1 -12 5 -16 5 -3 10 -17 10 -31 0 -13 5 -24 10
-24 11 0 13 39 4 64 -7 18 -20 21 -29 7z"/>
<path d="M1495 2081 c-3 -5 -1 -12 5 -16 5 -3 10 1 10 9 0 18 -6 21 -15 7z"/>
<path d="M1436 2055 c4 -8 7 -15 9 -15 2 0 5 7 9 15 3 9 0 15 -9 15 -9 0 -12
-6 -9 -15z"/>
<path d="M1370 2053 c1 -5 11 -28 24 -52 l23 -44 11 31 c9 26 8 30 -4 25 -12
-5 -19 13 -15 40 0 4 -8 7 -19 7 -11 0 -20 -3 -20 -7z"/>
<path d="M1475 2030 c-3 -5 -1 -10 4 -10 6 0 11 -10 11 -22 0 -31 15 -52 30
-43 8 5 9 10 1 18 -6 6 -11 24 -11 39 0 28 -22 39 -35 18z"/>
<path d="M1564 2025 c-8 -21 5 -85 17 -85 5 0 7 17 3 40 -6 35 -4 40 12 40 16
0 17 2 4 10 -21 14 -30 12 -36 -5z"/>
<path d="M1646 2012 c-3 -5 2 -9 11 -8 12 1 18 -8 20 -33 3 -38 7 -46 21 -37
5 3 6 22 3 43 -5 29 -11 39 -28 41 -11 2 -24 -1 -27 -6z"/>
<path d="M1640 1961 c0 -22 5 -31 16 -31 13 0 14 3 4 15 -6 8 -9 19 -6 24 4 5
2 12 -4 16 -6 4 -10 -6 -10 -24z"/>
<path d="M1347 1902 c-23 -25 -21 -59 2 -72 26 -14 38 -13 23 2 -20 20 -14 28
23 28 19 0 35 4 35 9 0 6 -16 7 -36 4 -32 -5 -36 -4 -32 13 3 14 12 19 36 19
17 0 32 3 32 7 0 16 -67 8 -83 -10z"/>
<path d="M1498 1912 c-29 -3 -36 -16 -17 -28 6 -3 8 -16 5 -28 -4 -18 -1 -22
18 -21 33 0 45 14 23 26 -21 12 -22 29 -3 29 19 0 29 17 13 22 -6 2 -24 2 -39
0z"/>
<path d="M1582 1888 c-19 -19 -15 -66 7 -77 14 -8 22 -7 31 3 9 12 7 15 -12
18 -15 2 -24 11 -26 27 -3 20 0 23 17 18 25 -6 38 8 15 17 -20 8 -18 8 -32 -6z"/>
<path d="M1670 1881 c0 -5 7 -11 15 -15 16 -6 21 -56 5 -56 -5 0 -16 12 -24
28 l-15 27 -1 -26 c0 -15 7 -32 15 -39 13 -10 19 -10 35 5 20 18 25 41 14 69
-6 17 -44 23 -44 7z"/>
<path d="M1415 1830 c-3 -5 -1 -10 4 -10 6 0 11 5 11 10 0 6 -2 10 -4 10 -3 0
-8 -4 -11 -10z"/>
<path d="M1340 1739 c0 -39 4 -59 11 -57 6 2 10 7 10 11 -1 4 -1 30 -1 57 0
28 -4 50 -10 50 -6 0 -10 -27 -10 -61z"/>
<path d="M1497 1783 c-11 -11 -8 -81 4 -89 6 -3 16 -1 22 5 8 8 7 11 -2 11
-10 0 -12 10 -7 40 6 37 -1 50 -17 33z"/>
<path d="M1413 1768 c-14 -18 -25 -67 -17 -79 4 -6 11 -6 19 1 8 7 18 9 23 6
6 -3 15 1 22 9 9 10 9 15 1 15 -6 0 -11 14 -11 30 0 31 -19 40 -37 18z m17
-18 c0 -5 -4 -10 -10 -10 -5 0 -10 5 -10 10 0 6 5 10 10 10 6 0 10 -4 10 -10z
m0 -30 c0 -5 -4 -10 -10 -10 -5 0 -10 5 -10 10 0 6 5 10 10 10 6 0 10 -4 10
-10z"/>
<path d="M1558 1765 c-3 -3 -2 -22 1 -43 6 -34 9 -37 39 -37 32 0 33 1 30 40
-2 22 -7 38 -13 35 -5 -3 -8 -17 -6 -32 2 -20 -2 -28 -13 -28 -11 0 -16 9 -16
29 0 28 -11 46 -22 36z"/>
<path d="M1660 1741 c0 -4 3 -11 8 -15 4 -4 8 -12 8 -17 1 -5 2 -17 4 -26 1
-11 5 -5 11 13 5 18 15 31 21 30 7 0 14 3 16 9 1 5 -14 10 -33 12 -19 1 -35
-2 -35 -6z"/>
<path d="M1266 1478 c9 -31 8 -30 38 -19 42 17 27 41 -25 41 -16 0 -19 -4 -13
-22z"/>
</g>
</svg>
