<?xml version="1.0" standalone="no"?>
<!DOCTYPE svg PUBLIC "-//W3C//DTD SVG 20010904//EN"
 "http://www.w3.org/TR/2001/REC-SVG-20010904/DTD/svg10.dtd">
<svg version="1.0" xmlns="http://www.w3.org/2000/svg"
 width="256.000000pt" height="256.000000pt" viewBox="0 0 256.000000 256.000000"
 preserveAspectRatio="xMidYMid meet">

<g transform="translate(0.000000,256.000000) scale(0.100000,-0.100000)"
fill="#000000" stroke="none">
<path d="M1070 2553 c-260 -20 -746 -81 -833 -104 l-38 -10 3 -992 3 -992 22
-41 c31 -59 137 -152 237 -208 48 -27 89 -46 92 -44 3 3 -6 18 -19 34 -13 16
-33 47 -44 69 -48 96 -48 91 -48 1089 l0 940 60 18 c366 111 690 156 940 129
225 -24 637 -122 663 -158 10 -14 12 -197 10 -933 l-3 -915 -25 -50 c-32 -63
-121 -132 -264 -204 -148 -74 -235 -101 -320 -101 -93 0 -101 6 -101 73 1 60
20 103 89 196 54 74 62 108 77 328 16 245 6 401 -47 718 -50 302 -60 347 -116
560 -66 254 -113 382 -153 415 -22 18 -36 -3 -74 -106 -57 -157 -76 -317 -116
-999 -13 -236 -27 -449 -30 -473 -5 -41 9 -59 19 -24 3 9 30 217 61 462 96
761 122 938 135 923 4 -4 18 -71 30 -148 12 -77 35 -202 51 -277 48 -230 67
-419 94 -979 l16 -316 -21 -57 c-14 -37 -41 -78 -77 -116 l-55 -60 4 -89 c2
-54 8 -95 15 -102 10 -10 38 -10 136 -1 220 22 403 76 615 183 150 75 226 133
270 207 l27 47 3 960 c1 529 -1 978 -6 1000 -9 47 11 41 -290 85 -375 55 -774
80 -992 63z"/>
</g>
</svg>
